<mxfile host="app.diagrams.net" agent="Mozilla/5.0 (Windows NT 10.0; Win64; x64) AppleWebKit/537.36 (KHTML, like Gecko) Chrome/130.0.0.0 Safari/537.36 OPR/115.0.0.0" version="26.0.8">
  <diagram name="Page-1" id="CrwMD8URhTuuAjiGetcL">
    <mxGraphModel grid="1" page="1" gridSize="10" guides="1" tooltips="1" connect="1" arrows="1" fold="1" pageScale="1" pageWidth="827" pageHeight="1169" math="0" shadow="0">
      <root>
        <mxCell id="0" />
        <mxCell id="1" parent="0" />
        <mxCell id="_7VWtXvbptRiLQ8HIZ5l-3" value="" style="edgeStyle=orthogonalEdgeStyle;rounded=0;orthogonalLoop=1;jettySize=auto;html=1;" edge="1" parent="1" source="_7VWtXvbptRiLQ8HIZ5l-1" target="_7VWtXvbptRiLQ8HIZ5l-2">
          <mxGeometry relative="1" as="geometry" />
        </mxCell>
        <mxCell id="_7VWtXvbptRiLQ8HIZ5l-1" value="Start" style="ellipse;whiteSpace=wrap;html=1;" vertex="1" parent="1">
          <mxGeometry x="350" y="160" width="120" height="80" as="geometry" />
        </mxCell>
        <mxCell id="_7VWtXvbptRiLQ8HIZ5l-5" value="" style="edgeStyle=orthogonalEdgeStyle;rounded=0;orthogonalLoop=1;jettySize=auto;html=1;" edge="1" parent="1" source="_7VWtXvbptRiLQ8HIZ5l-2" target="_7VWtXvbptRiLQ8HIZ5l-4">
          <mxGeometry relative="1" as="geometry" />
        </mxCell>
        <mxCell id="_7VWtXvbptRiLQ8HIZ5l-2" value="Input&lt;b&gt;&amp;nbsp;&lt;/b&gt;&lt;code&gt;Column name&lt;/code&gt; and &lt;code&gt;Column type&lt;/code&gt;" style="shape=parallelogram;perimeter=parallelogramPerimeter;whiteSpace=wrap;html=1;fixedSize=1;" vertex="1" parent="1">
          <mxGeometry x="290" y="280" width="240" height="70" as="geometry" />
        </mxCell>
        <mxCell id="_7VWtXvbptRiLQ8HIZ5l-7" value="" style="edgeStyle=orthogonalEdgeStyle;rounded=0;orthogonalLoop=1;jettySize=auto;html=1;" edge="1" parent="1" source="_7VWtXvbptRiLQ8HIZ5l-4" target="_7VWtXvbptRiLQ8HIZ5l-6">
          <mxGeometry relative="1" as="geometry" />
        </mxCell>
        <mxCell id="_7VWtXvbptRiLQ8HIZ5l-4" value="Create Column:&amp;nbsp;&lt;div&gt;Assign the name and type to the column object.&lt;/div&gt;" style="rounded=0;whiteSpace=wrap;html=1;" vertex="1" parent="1">
          <mxGeometry x="305" y="390" width="210" height="80" as="geometry" />
        </mxCell>
        <mxCell id="_7VWtXvbptRiLQ8HIZ5l-6" value="End" style="ellipse;whiteSpace=wrap;html=1;" vertex="1" parent="1">
          <mxGeometry x="350" y="500" width="120" height="80" as="geometry" />
        </mxCell>
      </root>
    </mxGraphModel>
  </diagram>
</mxfile>
